<svg width="512" height="704" viewBox="0 0 512 704" fill="none" xmlns="http://www.w3.org/2000/svg">
  <defs>
    <linearGradient id="treant-sky" x1="256" y1="0" x2="256" y2="704" gradientUnits="userSpaceOnUse">
      <stop offset="0" stop-color="#1c2a38" />
      <stop offset="1" stop-color="#0e1d16" />
    </linearGradient>
    <linearGradient id="treant-glow" x1="256" y1="180" x2="256" y2="612" gradientUnits="userSpaceOnUse">
      <stop offset="0" stop-color="#7ddba5" stop-opacity="0.82" />
      <stop offset="1" stop-color="#0b5d2e" stop-opacity="0" />
    </linearGradient>
    <linearGradient id="treant-trunk" x1="256" y1="240" x2="256" y2="640" gradientUnits="userSpaceOnUse">
      <stop offset="0" stop-color="#8f5832" />
      <stop offset="1" stop-color="#4a2d1a" />
    </linearGradient>
    <radialGradient id="treant-eye" cx="0" cy="0" r="1" gradientUnits="userSpaceOnUse" gradientTransform="translate(0 0) scale(1)">
      <stop stop-color="#fffbdd" />
      <stop offset="1" stop-color="#ffdd57" />
    </radialGradient>
  </defs>
  <rect width="512" height="704" rx="42" fill="url(#treant-sky)" />
  <g filter="url(#treant-haze)">
    <ellipse cx="256" cy="560" rx="210" ry="120" fill="url(#treant-glow)" />
  </g>
  <g opacity="0.18" stroke="#8de1a4" stroke-width="8">
    <path d="M120 180c48-34 114-54 188-54 74 0 140 20 188 54" />
    <path d="M92 250c54-42 124-66 204-66s150 24 204 66" />
    <path d="M72 332c60-48 132-74 224-74s164 26 224 74" />
  </g>
  <g filter="url(#treant-shadow)">
    <path d="M206 242c-18 66-48 114-96 152l64-10c-24 48-44 84-60 128 64-28 112-48 148-64-6 56-10 108-8 162 44-56 74-98 100-144 20 24 40 48 68 80-16-70-22-126-20-184 44 24 84 48 136 72-36-66-68-118-96-168 28 6 54 16 88 34-48-82-98-136-154-164-20-10-40-14-60-16-56-4-120 32-124 102z" fill="url(#treant-trunk)" />
  </g>
  <g fill="#2f6d3d" opacity="0.8">
    <path d="M154 274c24-60 74-118 126-118 64 0 124 78 148 146-64-36-144-72-214-28-16 10-38 4-60 0z" />
    <path d="M132 364c32-70 118-118 182-118 70 0 132 40 164 102-66-26-128-10-184 30-40 28-104 20-162-14z" />
  </g>
  <g fill="#49b072" opacity="0.8">
    <path d="M184 320c32-62 84-84 128-84 46 0 92 36 132 84-54-12-110-14-160 10-32 16-68 10-100-10z" />
  </g>
  <g>
    <circle cx="220" cy="292" r="16" fill="#0f1f16" stroke="#8ce29c" stroke-width="4" />
    <circle cx="220" cy="292" r="6" fill="url(#treant-eye)" />
    <circle cx="292" cy="292" r="16" fill="#0f1f16" stroke="#8ce29c" stroke-width="4" />
    <circle cx="292" cy="292" r="6" fill="url(#treant-eye)" />
  </g>
  <path d="M226 348c18 18 42 22 64 0" stroke="#0f1f16" stroke-width="12" stroke-linecap="round" stroke-linejoin="round" />
  <g fill="#89d36f" opacity="0.65">
    <circle cx="140" cy="420" r="24" />
    <circle cx="100" cy="480" r="18" />
    <circle cx="380" cy="420" r="20" />
    <circle cx="420" cy="500" r="14" />
  </g>
  <g fill="#143523" opacity="0.5">
    <path d="M196 508c-34 12-62 36-82 76 54-24 106-24 160 0 44-30 94-34 150-12-38-52-90-80-156-68-24 6-48 4-72 4z" />
  </g>
  <text x="50%" y="660" fill="#b8f7cb" font-family="'Press Start 2P', monospace" font-size="32" text-anchor="middle">Ancient Treant</text>
  <defs>
    <filter id="treant-shadow" x="96" y="180" width="320" height="400" color-interpolation-filters="sRGB">
      <feDropShadow dx="0" dy="12" stdDeviation="24" flood-color="#0b0f10" flood-opacity="0.6" />
    </filter>
    <filter id="treant-haze" x="0" y="420" width="512" height="280" color-interpolation-filters="sRGB">
      <feGaussianBlur in="SourceGraphic" stdDeviation="24" result="blur" />
      <feBlend in="blur" in2="SourceGraphic" mode="screen" />
    </filter>
  </defs>
</svg>
