<svg width="512" height="704" viewBox="0 0 512 704" fill="none" xmlns="http://www.w3.org/2000/svg">
  <defs>
    <linearGradient id="ember-bg" x1="256" y1="0" x2="256" y2="704" gradientUnits="userSpaceOnUse">
      <stop offset="0" stop-color="#2b0b1a" />
      <stop offset="1" stop-color="#06030d" />
    </linearGradient>
    <radialGradient id="ember-glow" cx="0" cy="0" r="1" gradientUnits="userSpaceOnUse" gradientTransform="translate(256 320) scale(220 200)">
      <stop offset="0" stop-color="#ffb347" stop-opacity="0.9" />
      <stop offset="1" stop-color="#e0593e" stop-opacity="0" />
    </radialGradient>
    <linearGradient id="ember-hat" x1="256" y1="140" x2="256" y2="340" gradientUnits="userSpaceOnUse">
      <stop offset="0" stop-color="#ff7b54" />
      <stop offset="1" stop-color="#a31d4c" />
    </linearGradient>
    <linearGradient id="ember-robe" x1="256" y1="320" x2="256" y2="620" gradientUnits="userSpaceOnUse">
      <stop offset="0" stop-color="#fcb045" />
      <stop offset="1" stop-color="#d81e5b" />
    </linearGradient>
    <radialGradient id="ember-eyes" cx="0" cy="0" r="1" gradientUnits="userSpaceOnUse" gradientTransform="translate(0 0) scale(1)">
      <stop stop-color="#fff4d6" />
      <stop offset="1" stop-color="#ffd24c" />
    </radialGradient>
  </defs>
  <rect width="512" height="704" rx="42" fill="url(#ember-bg)" />
  <circle cx="256" cy="320" r="220" fill="url(#ember-glow)" />
  <g opacity="0.22" stroke="#ff9f68" stroke-width="10">
    <path d="M64 188c72-32 140-48 192-48 52 0 120 16 192 48" />
    <path d="M42 276c82-44 162-66 214-66 52 0 132 22 214 66" />
  </g>
  <g filter="url(#ember-shadow)">
    <path d="M256 150c-74 0-148 62-148 138 36-18 72-24 108-12 42 14 74 12 108 0 32-12 68-10 108 12 0-76-102-138-176-138z" fill="url(#ember-hat)" />
    <path d="M164 214c22-40 52-64 92-64 46 0 78 28 92 64-62 0-124 0-184 0z" fill="#ffe7c7" opacity="0.5" />
    <path d="M180 320c-32 32-68 114-60 188 32-36 62-46 100-36 42 12 86 10 124 0 32-8 62 0 92 34 14-76-22-162-58-196-30-28-92-32-98-64-4-18-24-26-40-26-18 0-36 6-38 24-4 40-66 42-92 76z" fill="url(#ember-robe)" />
  </g>
  <g fill="#330617" opacity="0.7">
    <path d="M200 364c40 16 74 16 112 0-12 34-28 54-54 66-26-12-42-34-58-66z" />
  </g>
  <g>
    <circle cx="214" cy="266" r="18" fill="#120815" stroke="#ffb45e" stroke-width="4" />
    <circle cx="214" cy="266" r="8" fill="url(#ember-eyes)" />
    <circle cx="298" cy="266" r="18" fill="#120815" stroke="#ffb45e" stroke-width="4" />
    <circle cx="298" cy="266" r="8" fill="url(#ember-eyes)" />
  </g>
  <path d="M216 318c24 24 56 24 80 0" stroke="#240916" stroke-width="12" stroke-linecap="round" />
  <g opacity="0.6">
    <path d="M138 488c24-42 78-62 116-62 40 0 96 24 124 70-56-10-86-8-128 14-36 18-72 10-112-22z" fill="#ffe2b0" opacity="0.4" />
    <path d="M104 572c44-58 112-70 156-52 40 16 78 20 122 6-22 40-50 64-86 76-34 10-80 8-130-10-22-8-42-10-62-20z" fill="#f8f9fb" opacity="0.25" />
  </g>
  <g stroke="#ffcf7b" stroke-width="10" stroke-linecap="round" opacity="0.4">
    <path d="M128 160l-16-42" />
    <path d="M384 168l30-54" />
    <path d="M412 356l46 12" />
    <path d="M94 352l-44 14" />
  </g>
  <text x="50%" y="660" fill="#ffdca8" font-family="'Press Start 2P', monospace" font-size="32" text-anchor="middle">Embercap Shaman</text>
  <defs>
    <filter id="ember-shadow" x="60" y="150" width="392" height="470" color-interpolation-filters="sRGB">
      <feDropShadow dx="0" dy="18" stdDeviation="28" flood-color="#050608" flood-opacity="0.7" />
    </filter>
  </defs>
</svg>
